<svg width="249" height="251" viewBox="0 0 249 251" fill="none" xmlns="http://www.w3.org/2000/svg">
<rect width="220" height="236" rx="10" fill="white" fill-opacity="0.67"/>
<rect x="14.5" y="15.5" width="219" height="235" rx="9.5" fill="white" stroke="#DFE0EB"/>
<rect x="34" y="36" width="35" height="35" rx="5" fill="#FD736A"/>
<path d="M55.3571 57.2314H48.3971L46.9571 60.5714H44.3571L50.7971 46.3314H52.8971L59.3571 60.5714H56.7771L55.3571 57.2314ZM54.4971 55.2314L51.8771 49.1314L49.2571 55.2314H54.4971Z" fill="white"/>
<path d="M80.162 41.032H83.648C85.2627 41.032 86.5133 41.466 87.4 42.334C88.2867 43.202 88.73 44.4247 88.73 46.002C88.73 47.5887 88.2867 48.8207 87.4 49.698C86.5133 50.566 85.2627 51 83.648 51H80.162V41.032ZM83.564 49.796C86.0187 49.796 87.246 48.5313 87.246 46.002C87.246 43.4913 86.0187 42.236 83.564 42.236H81.604V49.796H83.564ZM94.015 51.098C93.3243 51.098 92.7177 50.9487 92.195 50.65C91.6723 50.3513 91.2663 49.9267 90.977 49.376C90.697 48.8253 90.557 48.1813 90.557 47.444C90.557 46.7067 90.697 46.0627 90.977 45.512C91.2663 44.952 91.6723 44.5227 92.195 44.224C92.7177 43.9253 93.3243 43.776 94.015 43.776C94.6963 43.776 95.2983 43.9253 95.821 44.224C96.3437 44.5227 96.745 44.952 97.025 45.512C97.3143 46.0627 97.459 46.7067 97.459 47.444C97.459 48.1813 97.3143 48.8253 97.025 49.376C96.745 49.9267 96.3437 50.3513 95.821 50.65C95.2983 50.9487 94.6963 51.098 94.015 51.098ZM94.001 49.978C94.6543 49.978 95.1537 49.7633 95.499 49.334C95.8443 48.9047 96.017 48.2747 96.017 47.444C96.017 46.632 95.8397 46.0067 95.485 45.568C95.1397 45.1293 94.6497 44.91 94.015 44.91C93.371 44.91 92.8717 45.1293 92.517 45.568C92.1623 46.0067 91.985 46.632 91.985 47.444C91.985 48.2747 92.1577 48.9047 92.503 49.334C92.8577 49.7633 93.357 49.978 94.001 49.978ZM105.532 47.5H100.492C100.538 49.152 101.29 49.978 102.746 49.978C103.558 49.978 104.3 49.712 104.972 49.18L105.406 50.188C105.088 50.468 104.682 50.692 104.188 50.86C103.702 51.0187 103.212 51.098 102.718 51.098C101.588 51.098 100.702 50.776 100.058 50.132C99.4138 49.4787 99.0918 48.5873 99.0918 47.458C99.0918 46.7393 99.2318 46.1 99.5118 45.54C99.8011 44.98 100.202 44.546 100.716 44.238C101.229 43.93 101.812 43.776 102.466 43.776C103.418 43.776 104.164 44.084 104.706 44.7C105.256 45.316 105.532 46.17 105.532 47.262V47.5ZM102.494 44.826C101.962 44.826 101.528 44.9847 101.192 45.302C100.856 45.6193 100.641 46.072 100.548 46.66H104.286C104.23 46.0627 104.048 45.61 103.74 45.302C103.432 44.9847 103.016 44.826 102.494 44.826ZM110.595 52.274C110.959 52.3393 111.295 52.372 111.603 52.372C112.079 52.372 112.405 52.2507 112.583 52.008C112.76 51.7653 112.849 51.336 112.849 50.72V41.032H114.305V50.734C114.305 51.7327 114.118 52.4607 113.745 52.918C113.371 53.3753 112.746 53.604 111.869 53.604C111.439 53.604 111.015 53.5667 110.595 53.492V52.274ZM119.937 51.098C119.247 51.098 118.64 50.9487 118.117 50.65C117.595 50.3513 117.189 49.9267 116.899 49.376C116.619 48.8253 116.479 48.1813 116.479 47.444C116.479 46.7067 116.619 46.0627 116.899 45.512C117.189 44.952 117.595 44.5227 118.117 44.224C118.64 43.9253 119.247 43.776 119.937 43.776C120.619 43.776 121.221 43.9253 121.743 44.224C122.266 44.5227 122.667 44.952 122.947 45.512C123.237 46.0627 123.381 46.7067 123.381 47.444C123.381 48.1813 123.237 48.8253 122.947 49.376C122.667 49.9267 122.266 50.3513 121.743 50.65C121.221 50.9487 120.619 51.098 119.937 51.098ZM119.923 49.978C120.577 49.978 121.076 49.7633 121.421 49.334C121.767 48.9047 121.939 48.2747 121.939 47.444C121.939 46.632 121.762 46.0067 121.407 45.568C121.062 45.1293 120.572 44.91 119.937 44.91C119.293 44.91 118.794 45.1293 118.439 45.568C118.085 46.0067 117.907 46.632 117.907 47.444C117.907 48.2747 118.08 48.9047 118.425 49.334C118.78 49.7633 119.279 49.978 119.923 49.978ZM129.186 43.776C130.875 43.776 131.72 44.7187 131.72 46.604V51H130.306V46.688C130.306 46.072 130.185 45.624 129.942 45.344C129.709 45.064 129.331 44.924 128.808 44.924C128.211 44.924 127.73 45.1107 127.366 45.484C127.011 45.8573 126.834 46.3567 126.834 46.982V51H125.434V40.696H126.834V45.036C127.067 44.6253 127.389 44.3127 127.8 44.098C128.211 43.8833 128.673 43.776 129.186 43.776ZM137.885 43.776C139.574 43.776 140.419 44.7187 140.419 46.604V51H139.005V46.688C139.005 46.072 138.884 45.624 138.641 45.344C138.408 45.064 138.03 44.924 137.507 44.924C136.91 44.924 136.429 45.1107 136.065 45.484C135.71 45.8573 135.533 46.3567 135.533 46.982V51H134.133V45.932C134.133 45.1947 134.096 44.532 134.021 43.944H135.337L135.463 45.162C135.687 44.714 136.009 44.3733 136.429 44.14C136.858 43.8973 137.344 43.776 137.885 43.776Z" fill="black"/>
<path d="M82.14 67.08C81.0267 67.08 80.14 66.78 79.48 66.18L79.79 65.55C80.1433 65.85 80.5033 66.0633 80.87 66.19C81.2367 66.3167 81.6633 66.38 82.15 66.38C82.7233 66.38 83.1633 66.27 83.47 66.05C83.7833 65.8233 83.94 65.5067 83.94 65.1C83.94 64.86 83.8633 64.6667 83.71 64.52C83.5633 64.3667 83.3667 64.2467 83.12 64.16C82.88 64.0733 82.5567 63.9833 82.15 63.89C81.6033 63.77 81.1533 63.64 80.8 63.5C80.4467 63.36 80.16 63.16 79.94 62.9C79.72 62.6333 79.61 62.2867 79.61 61.86C79.61 61.4533 79.7167 61.0967 79.93 60.79C80.1433 60.4767 80.4433 60.2333 80.83 60.06C81.2233 59.8867 81.68 59.8 82.2 59.8C82.6933 59.8 83.1533 59.8767 83.58 60.03C84.0067 60.1833 84.3667 60.4067 84.66 60.7L84.34 61.33C84.0067 61.0433 83.6667 60.8333 83.32 60.7C82.98 60.5667 82.6067 60.5 82.2 60.5C81.6467 60.5 81.2133 60.62 80.9 60.86C80.5867 61.0933 80.43 61.4167 80.43 61.83C80.43 62.19 80.5667 62.46 80.84 62.64C81.1133 62.82 81.5333 62.9767 82.1 63.11C82.7133 63.2567 83.1933 63.3933 83.54 63.52C83.8933 63.64 84.1867 63.8267 84.42 64.08C84.6533 64.3267 84.77 64.6567 84.77 65.07C84.77 65.47 84.6633 65.8233 84.45 66.13C84.2367 66.43 83.93 66.6633 83.53 66.83C83.1367 66.9967 82.6733 67.08 82.14 67.08ZM86.5105 59.88H88.9005C90.0405 59.88 90.9205 60.19 91.5405 60.81C92.1671 61.4233 92.4805 62.2967 92.4805 63.43C92.4805 64.57 92.1671 65.45 91.5405 66.07C90.9205 66.69 90.0405 67 88.9005 67H86.5105V59.88ZM88.8505 66.3C89.7705 66.3 90.4605 66.06 90.9205 65.58C91.3871 65.1 91.6205 64.3833 91.6205 63.43C91.6205 61.53 90.6971 60.58 88.8505 60.58H87.3305V66.3H88.8505ZM94.3714 59.88H98.8714V60.56H95.1814V63.04H98.6714V63.73H95.1814V66.32H98.8714V67H94.3714V59.88ZM103.508 63.98H106.338V64.65H103.508V63.98ZM111.352 59.88H112.172V67H111.352V59.88ZM116.74 61.85C117.947 61.85 118.55 62.5133 118.55 63.84V67H117.74V63.88C117.74 63.4133 117.647 63.0733 117.46 62.86C117.274 62.64 116.98 62.53 116.58 62.53C116.114 62.53 115.74 62.6733 115.46 62.96C115.18 63.2467 115.04 63.6333 115.04 64.12V67H114.23V63.38C114.23 62.86 114.204 62.39 114.15 61.97H114.92L115 62.87C115.154 62.5433 115.384 62.2933 115.69 62.12C115.997 61.94 116.347 61.85 116.74 61.85ZM121.56 62.61V65.36C121.56 65.7333 121.637 65.9967 121.79 66.15C121.943 66.2967 122.16 66.37 122.44 66.37C122.627 66.37 122.807 66.34 122.98 66.28V66.97C122.773 67.0367 122.54 67.07 122.28 67.07C121.8 67.07 121.423 66.9367 121.15 66.67C120.883 66.3967 120.75 65.9967 120.75 65.47V62.61H119.77V61.97H120.75V60.68L121.56 60.39V61.97H123V62.61H121.56ZM128.586 64.46H124.896C124.903 65.1 125.049 65.5833 125.336 65.91C125.629 66.2367 126.053 66.4 126.606 66.4C127.193 66.4 127.733 66.2033 128.226 65.81L128.496 66.4C128.276 66.6067 127.993 66.77 127.646 66.89C127.306 67.01 126.956 67.07 126.596 67.07C125.809 67.07 125.193 66.84 124.746 66.38C124.299 65.9133 124.076 65.2767 124.076 64.47C124.076 63.9567 124.176 63.5033 124.376 63.11C124.576 62.71 124.856 62.4 125.216 62.18C125.576 61.96 125.986 61.85 126.446 61.85C127.113 61.85 127.636 62.07 128.016 62.51C128.396 62.9433 128.586 63.5433 128.586 64.31V64.46ZM126.456 62.48C126.036 62.48 125.693 62.6067 125.426 62.86C125.166 63.1133 124.999 63.47 124.926 63.93H127.856C127.816 63.4567 127.676 63.0967 127.436 62.85C127.203 62.6033 126.876 62.48 126.456 62.48ZM132.556 61.85C132.722 61.85 132.876 61.87 133.016 61.91L132.996 62.65C132.842 62.5967 132.666 62.57 132.466 62.57C131.979 62.57 131.616 62.7233 131.376 63.03C131.142 63.33 131.026 63.6967 131.026 64.13V67H130.216V63.38C130.216 62.86 130.189 62.39 130.136 61.97H130.906L130.986 62.9C131.112 62.56 131.316 62.3 131.596 62.12C131.876 61.94 132.196 61.85 132.556 61.85ZM136.749 61.85C137.955 61.85 138.559 62.5133 138.559 63.84V67H137.749V63.88C137.749 63.4133 137.655 63.0733 137.469 62.86C137.282 62.64 136.989 62.53 136.589 62.53C136.122 62.53 135.749 62.6733 135.469 62.96C135.189 63.2467 135.049 63.6333 135.049 64.12V67H134.239V63.38C134.239 62.86 134.212 62.39 134.159 61.97H134.929L135.009 62.87C135.162 62.5433 135.392 62.2933 135.699 62.12C136.005 61.94 136.355 61.85 136.749 61.85Z" fill="#606060"/>
<path d="M71.35 219.034V220H65.792V219.034H67.99V211.46L65.946 212.762V211.656L68.494 210.032H69.152V219.034H71.35ZM80.7325 217.83H79.2205V220H78.0725V217.83H73.4805V216.962L78.2825 210.032H79.2205V216.878H80.7325V217.83ZM78.0725 216.878V211.978L74.6705 216.878H78.0725ZM91.0435 220.112C90.1195 220.112 89.3168 219.907 88.6355 219.496C87.9541 219.085 87.4268 218.497 87.0535 217.732C86.6895 216.957 86.5075 216.052 86.5075 215.016C86.5075 213.971 86.6895 213.065 87.0535 212.3C87.4175 211.535 87.9401 210.947 88.6215 210.536C89.3028 210.125 90.1101 209.92 91.0435 209.92C91.9768 209.92 92.7841 210.125 93.4655 210.536C94.1468 210.947 94.6695 211.535 95.0335 212.3C95.3975 213.065 95.5795 213.966 95.5795 215.002C95.5795 216.047 95.3928 216.953 95.0195 217.718C94.6555 218.483 94.1328 219.076 93.4515 219.496C92.7701 219.907 91.9675 220.112 91.0435 220.112ZM91.0435 219.132C92.0981 219.132 92.9195 218.773 93.5075 218.054C94.0955 217.335 94.3895 216.318 94.3895 215.002C94.3895 213.686 94.0955 212.673 93.5075 211.964C92.9288 211.255 92.1075 210.9 91.0435 210.9C89.9795 210.9 89.1535 211.259 88.5655 211.978C87.9775 212.687 87.6835 213.695 87.6835 215.002C87.6835 216.318 87.9775 217.335 88.5655 218.054C89.1535 218.773 89.9795 219.132 91.0435 219.132ZM100.9 220.098C100.219 220.098 99.6212 219.949 99.1079 219.65C98.6039 219.351 98.2119 218.931 97.9319 218.39C97.6612 217.839 97.5259 217.2 97.5259 216.472C97.5259 215.744 97.6659 215.105 97.9459 214.554C98.2259 213.994 98.6226 213.56 99.1359 213.252C99.6586 212.944 100.265 212.79 100.956 212.79C101.432 212.79 101.889 212.874 102.328 213.042C102.776 213.201 103.145 213.425 103.434 213.714L103.056 214.554C102.701 214.274 102.356 214.069 102.02 213.938C101.693 213.807 101.357 213.742 101.012 213.742C100.293 213.742 99.7286 213.985 99.3179 214.47C98.9072 214.946 98.7019 215.613 98.7019 216.472C98.7019 217.321 98.9026 217.984 99.3039 218.46C99.7146 218.927 100.284 219.16 101.012 219.16C101.357 219.16 101.693 219.095 102.02 218.964C102.356 218.833 102.701 218.628 103.056 218.348L103.434 219.188C103.135 219.468 102.757 219.692 102.3 219.86C101.852 220.019 101.385 220.098 100.9 220.098ZM106.803 213.854V217.704C106.803 218.227 106.911 218.595 107.125 218.81C107.34 219.015 107.643 219.118 108.035 219.118C108.297 219.118 108.549 219.076 108.791 218.992V219.958C108.502 220.051 108.175 220.098 107.811 220.098C107.139 220.098 106.612 219.911 106.229 219.538C105.856 219.155 105.669 218.595 105.669 217.858V213.854H104.297V212.958H105.669V211.152L106.803 210.746V212.958H108.819V213.854H106.803ZM121.118 219.034V220H114.706V219.132L118.192 215.268C118.659 214.745 118.999 214.274 119.214 213.854C119.429 213.434 119.536 213.014 119.536 212.594C119.536 212.043 119.377 211.623 119.06 211.334C118.743 211.035 118.29 210.886 117.702 210.886C116.75 210.886 115.807 211.269 114.874 212.034L114.44 211.152C114.832 210.779 115.327 210.48 115.924 210.256C116.521 210.032 117.123 209.92 117.73 209.92C118.645 209.92 119.368 210.158 119.9 210.634C120.432 211.101 120.698 211.735 120.698 212.538C120.698 213.107 120.567 213.658 120.306 214.19C120.054 214.713 119.629 215.301 119.032 215.954L116.19 219.034H121.118ZM126.539 220.112C125.4 220.112 124.532 219.683 123.935 218.824C123.347 217.956 123.053 216.687 123.053 215.016C123.053 213.345 123.347 212.081 123.935 211.222C124.532 210.354 125.4 209.92 126.539 209.92C127.677 209.92 128.541 210.354 129.129 211.222C129.726 212.081 130.025 213.341 130.025 215.002C130.025 216.673 129.726 217.942 129.129 218.81C128.541 219.678 127.677 220.112 126.539 220.112ZM126.539 219.146C127.332 219.146 127.915 218.81 128.289 218.138C128.671 217.466 128.863 216.421 128.863 215.002C128.863 213.593 128.676 212.557 128.303 211.894C127.929 211.231 127.341 210.9 126.539 210.9C125.745 210.9 125.157 211.231 124.775 211.894C124.401 212.557 124.215 213.593 124.215 215.002C124.215 216.411 124.401 217.457 124.775 218.138C125.157 218.81 125.745 219.146 126.539 219.146ZM138.707 219.034V220H132.295V219.132L135.781 215.268C136.248 214.745 136.589 214.274 136.803 213.854C137.018 213.434 137.125 213.014 137.125 212.594C137.125 212.043 136.967 211.623 136.649 211.334C136.332 211.035 135.879 210.886 135.291 210.886C134.339 210.886 133.397 211.269 132.463 212.034L132.029 211.152C132.421 210.779 132.916 210.48 133.513 210.256C134.111 210.032 134.713 209.92 135.319 209.92C136.234 209.92 136.957 210.158 137.489 210.634C138.021 211.101 138.287 211.735 138.287 212.538C138.287 213.107 138.157 213.658 137.895 214.19C137.643 214.713 137.219 215.301 136.621 215.954L133.779 219.034H138.707ZM147.278 219.034V220H141.72V219.034H143.918V211.46L141.874 212.762V211.656L144.422 210.032H145.08V219.034H147.278Z" fill="#9FA2B4"/>
<path d="M45 205C50.53 205 55 209.48 55 215C55 220.53 50.53 225 45 225C39.48 225 35 220.53 35 215C35 209.48 39.48 205 45 205ZM44.65 209.93C44.24 209.93 43.9 210.26 43.9 210.68V215.73C43.9 215.99 44.04 216.23 44.27 216.37L48.19 218.71C48.31 218.78 48.44 218.82 48.58 218.82C48.83 218.82 49.08 218.69 49.22 218.45C49.43 218.1 49.32 217.64 48.96 217.42L45.4 215.3V210.68C45.4 210.26 45.06 209.93 44.65 209.93Z" fill="#9FA2B4"/>
<path d="M35.056 97.456H36.04V105.16H40.324V106H35.056V97.456ZM44.3593 106.084C43.7913 106.084 43.2913 105.956 42.8593 105.7C42.4273 105.444 42.0913 105.08 41.8513 104.608C41.6193 104.136 41.5033 103.584 41.5033 102.952C41.5033 102.32 41.6193 101.768 41.8513 101.296C42.0913 100.824 42.4273 100.46 42.8593 100.204C43.2913 99.948 43.7913 99.82 44.3593 99.82C44.9273 99.82 45.4273 99.948 45.8593 100.204C46.2913 100.46 46.6233 100.824 46.8553 101.296C47.0953 101.768 47.2153 102.32 47.2153 102.952C47.2153 103.584 47.0953 104.136 46.8553 104.608C46.6233 105.08 46.2913 105.444 45.8593 105.7C45.4273 105.956 44.9273 106.084 44.3593 106.084ZM44.3593 105.28C44.9593 105.28 45.4193 105.084 45.7393 104.692C46.0593 104.292 46.2193 103.712 46.2193 102.952C46.2193 102.216 46.0553 101.648 45.7273 101.248C45.3993 100.84 44.9433 100.636 44.3593 100.636C43.7673 100.636 43.3073 100.84 42.9793 101.248C42.6513 101.648 42.4873 102.216 42.4873 102.952C42.4873 103.712 42.6473 104.292 42.9673 104.692C43.2953 105.084 43.7593 105.28 44.3593 105.28ZM51.9385 99.82C52.1385 99.82 52.3225 99.844 52.4905 99.892L52.4665 100.78C52.2825 100.716 52.0705 100.684 51.8305 100.684C51.2465 100.684 50.8105 100.868 50.5225 101.236C50.2425 101.596 50.1025 102.036 50.1025 102.556V106H49.1305V101.656C49.1305 101.032 49.0985 100.468 49.0345 99.964H49.9585L50.0545 101.08C50.2065 100.672 50.4505 100.36 50.7865 100.144C51.1225 99.928 51.5065 99.82 51.9385 99.82ZM58.813 102.952H54.385C54.393 103.72 54.569 104.3 54.913 104.692C55.265 105.084 55.773 105.28 56.437 105.28C57.141 105.28 57.789 105.044 58.381 104.572L58.705 105.28C58.441 105.528 58.101 105.724 57.685 105.868C57.277 106.012 56.857 106.084 56.425 106.084C55.481 106.084 54.741 105.808 54.205 105.256C53.669 104.696 53.401 103.932 53.401 102.964C53.401 102.348 53.521 101.804 53.761 101.332C54.001 100.852 54.337 100.48 54.769 100.216C55.201 99.952 55.693 99.82 56.245 99.82C57.045 99.82 57.673 100.084 58.129 100.612C58.585 101.132 58.813 101.852 58.813 102.772V102.952ZM56.257 100.576C55.753 100.576 55.341 100.728 55.021 101.032C54.709 101.336 54.509 101.764 54.421 102.316H57.937C57.889 101.748 57.721 101.316 57.433 101.02C57.153 100.724 56.761 100.576 56.257 100.576ZM67.3843 99.82C68.7203 99.82 69.3883 100.616 69.3883 102.208V106H68.4163V102.256C68.4163 101.688 68.3163 101.276 68.1163 101.02C67.9243 100.764 67.6083 100.636 67.1683 100.636C66.6563 100.636 66.2563 100.808 65.9683 101.152C65.6803 101.496 65.5363 101.964 65.5363 102.556V106H64.5643V102.256C64.5643 101.696 64.4643 101.288 64.2643 101.032C64.0643 100.768 63.7443 100.636 63.3043 100.636C62.7923 100.636 62.3883 100.808 62.0923 101.152C61.8043 101.496 61.6603 101.964 61.6603 102.556V106H60.6883V101.656C60.6883 101.032 60.6563 100.468 60.5923 99.964H61.5163L61.6123 101.02C61.7803 100.636 62.0283 100.34 62.3563 100.132C62.6923 99.924 63.0803 99.82 63.5203 99.82C64.0003 99.82 64.3923 99.916 64.6963 100.108C65.0003 100.3 65.2243 100.596 65.3683 100.996C65.5523 100.636 65.8203 100.352 66.1723 100.144C66.5323 99.928 66.9363 99.82 67.3843 99.82ZM75.2841 97.456H76.2681V106H75.2841V97.456ZM81.6699 99.82C82.1979 99.82 82.6659 99.952 83.0739 100.216C83.4819 100.48 83.7979 100.852 84.0219 101.332C84.2459 101.804 84.3579 102.352 84.3579 102.976C84.3579 103.6 84.2459 104.148 84.0219 104.62C83.7979 105.084 83.4819 105.444 83.0739 105.7C82.6739 105.956 82.2059 106.084 81.6699 106.084C81.1979 106.084 80.7859 105.98 80.4339 105.772C80.0819 105.564 79.8139 105.268 79.6299 104.884V108.592H78.6579V101.656C78.6579 101.032 78.6259 100.468 78.5619 99.964H79.4859L79.5819 101.128C79.7499 100.712 80.0139 100.392 80.3739 100.168C80.7419 99.936 81.1739 99.82 81.6699 99.82ZM81.4899 105.28C82.0819 105.28 82.5379 105.08 82.8579 104.68C83.1859 104.28 83.3499 103.712 83.3499 102.976C83.3499 102.24 83.1859 101.668 82.8579 101.26C82.5299 100.844 82.0739 100.636 81.4899 100.636C80.8899 100.636 80.4299 100.836 80.1099 101.236C79.7899 101.636 79.6299 102.208 79.6299 102.952C79.6299 103.696 79.7899 104.272 80.1099 104.68C80.4299 105.08 80.8899 105.28 81.4899 105.28ZM88.2932 106.084C87.2772 106.084 86.4732 105.824 85.8812 105.304L86.2052 104.584C86.5332 104.84 86.8652 105.024 87.2012 105.136C87.5372 105.248 87.9132 105.304 88.3292 105.304C88.7852 105.304 89.1292 105.228 89.3612 105.076C89.6012 104.916 89.7212 104.688 89.7212 104.392C89.7212 104.152 89.6412 103.96 89.4812 103.816C89.3212 103.672 89.0572 103.56 88.6892 103.48L87.6692 103.24C87.1652 103.128 86.7732 102.928 86.4932 102.64C86.2212 102.352 86.0852 102.008 86.0852 101.608C86.0852 101.08 86.2972 100.652 86.7212 100.324C87.1452 99.988 87.7052 99.82 88.4012 99.82C88.8252 99.82 89.2252 99.888 89.6012 100.024C89.9772 100.16 90.2932 100.356 90.5492 100.612L90.2252 101.32C89.6572 100.848 89.0492 100.612 88.4012 100.612C87.9692 100.612 87.6332 100.696 87.3932 100.864C87.1612 101.024 87.0452 101.252 87.0452 101.548C87.0452 101.796 87.1172 101.992 87.2612 102.136C87.4132 102.28 87.6532 102.392 87.9812 102.472L89.0012 102.724C89.5612 102.852 89.9772 103.052 90.2492 103.324C90.5212 103.588 90.6572 103.936 90.6572 104.368C90.6572 104.888 90.4452 105.304 90.0212 105.616C89.5972 105.928 89.0212 106.084 88.2932 106.084ZM97.6583 99.964V106H96.7103V104.956C96.5183 105.324 96.2503 105.604 95.9063 105.796C95.5623 105.988 95.1743 106.084 94.7423 106.084C94.0303 106.084 93.4903 105.884 93.1223 105.484C92.7543 105.084 92.5703 104.492 92.5703 103.708V99.964H93.5423V103.684C93.5423 104.228 93.6543 104.628 93.8783 104.884C94.1023 105.14 94.4423 105.268 94.8983 105.268C95.4343 105.268 95.8663 105.096 96.1943 104.752C96.5223 104.4 96.6863 103.94 96.6863 103.372V99.964H97.6583ZM106.628 99.82C107.964 99.82 108.632 100.616 108.632 102.208V106H107.66V102.256C107.66 101.688 107.56 101.276 107.36 101.02C107.168 100.764 106.852 100.636 106.412 100.636C105.9 100.636 105.5 100.808 105.212 101.152C104.924 101.496 104.78 101.964 104.78 102.556V106H103.808V102.256C103.808 101.696 103.708 101.288 103.508 101.032C103.308 100.768 102.988 100.636 102.548 100.636C102.036 100.636 101.632 100.808 101.336 101.152C101.048 101.496 100.904 101.964 100.904 102.556V106H99.9321V101.656C99.9321 101.032 99.9001 100.468 99.8361 99.964H100.76L100.856 101.02C101.024 100.636 101.272 100.34 101.6 100.132C101.936 99.924 102.324 99.82 102.764 99.82C103.244 99.82 103.636 99.916 103.94 100.108C104.244 100.3 104.468 100.596 104.612 100.996C104.796 100.636 105.064 100.352 105.416 100.144C105.776 99.928 106.18 99.82 106.628 99.82ZM114.408 99.964H115.38V106H114.408V99.964ZM115.5 97.408V98.512H114.312V97.408H115.5ZM119.707 106.084C118.691 106.084 117.887 105.824 117.295 105.304L117.619 104.584C117.947 104.84 118.279 105.024 118.615 105.136C118.951 105.248 119.327 105.304 119.743 105.304C120.199 105.304 120.543 105.228 120.775 105.076C121.015 104.916 121.135 104.688 121.135 104.392C121.135 104.152 121.055 103.96 120.895 103.816C120.735 103.672 120.471 103.56 120.103 103.48L119.083 103.24C118.579 103.128 118.187 102.928 117.907 102.64C117.635 102.352 117.499 102.008 117.499 101.608C117.499 101.08 117.711 100.652 118.135 100.324C118.559 99.988 119.119 99.82 119.815 99.82C120.239 99.82 120.639 99.888 121.015 100.024C121.391 100.16 121.707 100.356 121.963 100.612L121.639 101.32C121.071 100.848 120.463 100.612 119.815 100.612C119.383 100.612 119.047 100.696 118.807 100.864C118.575 101.024 118.459 101.252 118.459 101.548C118.459 101.796 118.531 101.992 118.675 102.136C118.827 102.28 119.067 102.392 119.395 102.472L120.415 102.724C120.975 102.852 121.391 103.052 121.663 103.324C121.935 103.588 122.071 103.936 122.071 104.368C122.071 104.888 121.859 105.304 121.435 105.616C121.011 105.928 120.435 106.084 119.707 106.084ZM129.589 106.084C128.573 106.084 127.769 105.824 127.177 105.304L127.501 104.584C127.829 104.84 128.161 105.024 128.497 105.136C128.833 105.248 129.209 105.304 129.625 105.304C130.081 105.304 130.425 105.228 130.657 105.076C130.897 104.916 131.017 104.688 131.017 104.392C131.017 104.152 130.937 103.96 130.777 103.816C130.617 103.672 130.353 103.56 129.985 103.48L128.965 103.24C128.461 103.128 128.069 102.928 127.789 102.64C127.517 102.352 127.381 102.008 127.381 101.608C127.381 101.08 127.593 100.652 128.017 100.324C128.441 99.988 129.001 99.82 129.697 99.82C130.121 99.82 130.521 99.888 130.897 100.024C131.273 100.16 131.589 100.356 131.845 100.612L131.521 101.32C130.953 100.848 130.345 100.612 129.697 100.612C129.265 100.612 128.929 100.696 128.689 100.864C128.457 101.024 128.341 101.252 128.341 101.548C128.341 101.796 128.413 101.992 128.557 102.136C128.709 102.28 128.949 102.392 129.277 102.472L130.297 102.724C130.857 102.852 131.273 103.052 131.545 103.324C131.817 103.588 131.953 103.936 131.953 104.368C131.953 104.888 131.741 105.304 131.317 105.616C130.893 105.928 130.317 106.084 129.589 106.084ZM133.902 99.964H134.874V106H133.902V99.964ZM134.994 97.408V98.512H133.806V97.408H134.994ZM143.858 99.82C145.194 99.82 145.862 100.616 145.862 102.208V106H144.89V102.256C144.89 101.688 144.79 101.276 144.59 101.02C144.398 100.764 144.082 100.636 143.642 100.636C143.13 100.636 142.73 100.808 142.442 101.152C142.154 101.496 142.01 101.964 142.01 102.556V106H141.038V102.256C141.038 101.696 140.938 101.288 140.738 101.032C140.538 100.768 140.218 100.636 139.778 100.636C139.266 100.636 138.862 100.808 138.566 101.152C138.278 101.496 138.134 101.964 138.134 102.556V106H137.162V101.656C137.162 101.032 137.13 100.468 137.066 99.964H137.99L138.086 101.02C138.254 100.636 138.502 100.34 138.83 100.132C139.166 99.924 139.554 99.82 139.994 99.82C140.474 99.82 140.866 99.916 141.17 100.108C141.474 100.3 141.698 100.596 141.842 100.996C142.026 100.636 142.294 100.352 142.646 100.144C143.006 99.928 143.41 99.82 143.858 99.82ZM151.121 99.82C151.649 99.82 152.117 99.952 152.525 100.216C152.933 100.48 153.249 100.852 153.473 101.332C153.697 101.804 153.809 102.352 153.809 102.976C153.809 103.6 153.697 104.148 153.473 104.62C153.249 105.084 152.933 105.444 152.525 105.7C152.125 105.956 151.657 106.084 151.121 106.084C150.649 106.084 150.237 105.98 149.885 105.772C149.533 105.564 149.265 105.268 149.081 104.884V108.592H148.109V101.656C148.109 101.032 148.077 100.468 148.013 99.964H148.937L149.033 101.128C149.201 100.712 149.465 100.392 149.825 100.168C150.193 99.936 150.625 99.82 151.121 99.82ZM150.941 105.28C151.533 105.28 151.989 105.08 152.309 104.68C152.637 104.28 152.801 103.712 152.801 102.976C152.801 102.24 152.637 101.668 152.309 101.26C151.981 100.844 151.525 100.636 150.941 100.636C150.341 100.636 149.881 100.836 149.561 101.236C149.241 101.636 149.081 102.208 149.081 102.952C149.081 103.696 149.241 104.272 149.561 104.68C149.881 105.08 150.341 105.28 150.941 105.28ZM155.704 97.168H156.676V106H155.704V97.168ZM164.267 99.964L161.447 106.552C161.151 107.24 160.779 107.744 160.331 108.064C159.883 108.384 159.331 108.604 158.675 108.724L158.471 107.968C159.039 107.84 159.467 107.668 159.755 107.452C160.051 107.244 160.295 106.92 160.487 106.48L160.727 105.94L158.171 99.964H159.191L161.231 104.944L163.295 99.964H164.267ZM174.583 97.168V106H173.623V104.908C173.447 105.284 173.179 105.576 172.819 105.784C172.467 105.984 172.055 106.084 171.583 106.084C171.055 106.084 170.587 105.952 170.179 105.688C169.779 105.424 169.467 105.056 169.243 104.584C169.019 104.104 168.907 103.552 168.907 102.928C168.907 102.304 169.015 101.76 169.231 101.296C169.455 100.824 169.771 100.46 170.179 100.204C170.587 99.948 171.055 99.82 171.583 99.82C172.055 99.82 172.467 99.924 172.819 100.132C173.171 100.332 173.435 100.616 173.611 100.984V97.168H174.583ZM171.775 105.28C172.367 105.28 172.823 105.08 173.143 104.68C173.463 104.272 173.623 103.696 173.623 102.952C173.623 102.216 173.463 101.648 173.143 101.248C172.823 100.84 172.367 100.636 171.775 100.636C171.183 100.636 170.719 100.836 170.383 101.236C170.055 101.636 169.891 102.2 169.891 102.928C169.891 103.672 170.055 104.252 170.383 104.668C170.719 105.076 171.183 105.28 171.775 105.28ZM181.915 99.964V106H180.967V104.956C180.775 105.324 180.507 105.604 180.163 105.796C179.819 105.988 179.431 106.084 178.999 106.084C178.287 106.084 177.747 105.884 177.379 105.484C177.011 105.084 176.827 104.492 176.827 103.708V99.964H177.799V103.684C177.799 104.228 177.911 104.628 178.135 104.884C178.359 105.14 178.699 105.268 179.155 105.268C179.691 105.268 180.123 105.096 180.451 104.752C180.779 104.4 180.943 103.94 180.943 103.372V99.964H181.915ZM190.884 99.82C192.22 99.82 192.888 100.616 192.888 102.208V106H191.916V102.256C191.916 101.688 191.816 101.276 191.616 101.02C191.424 100.764 191.108 100.636 190.668 100.636C190.156 100.636 189.756 100.808 189.468 101.152C189.18 101.496 189.036 101.964 189.036 102.556V106H188.064V102.256C188.064 101.696 187.964 101.288 187.764 101.032C187.564 100.768 187.244 100.636 186.804 100.636C186.292 100.636 185.888 100.808 185.592 101.152C185.304 101.496 185.16 101.964 185.16 102.556V106H184.188V101.656C184.188 101.032 184.156 100.468 184.092 99.964H185.016L185.112 101.02C185.28 100.636 185.528 100.34 185.856 100.132C186.192 99.924 186.58 99.82 187.02 99.82C187.5 99.82 187.892 99.916 188.196 100.108C188.5 100.3 188.724 100.596 188.868 100.996C189.052 100.636 189.32 100.352 189.672 100.144C190.032 99.928 190.436 99.82 190.884 99.82ZM201.831 99.82C203.167 99.82 203.835 100.616 203.835 102.208V106H202.863V102.256C202.863 101.688 202.763 101.276 202.563 101.02C202.371 100.764 202.055 100.636 201.615 100.636C201.103 100.636 200.703 100.808 200.415 101.152C200.127 101.496 199.983 101.964 199.983 102.556V106H199.011V102.256C199.011 101.696 198.911 101.288 198.711 101.032C198.511 100.768 198.191 100.636 197.751 100.636C197.239 100.636 196.835 100.808 196.539 101.152C196.251 101.496 196.107 101.964 196.107 102.556V106H195.135V101.656C195.135 101.032 195.103 100.468 195.039 99.964H195.963L196.059 101.02C196.227 100.636 196.475 100.34 196.803 100.132C197.139 99.924 197.527 99.82 197.967 99.82C198.447 99.82 198.839 99.916 199.143 100.108C199.447 100.3 199.671 100.596 199.815 100.996C199.999 100.636 200.267 100.352 200.619 100.144C200.979 99.928 201.383 99.82 201.831 99.82ZM211.386 99.964L208.566 106.552C208.27 107.24 207.898 107.744 207.45 108.064C207.002 108.384 206.45 108.604 205.794 108.724L205.59 107.968C206.158 107.84 206.586 107.668 206.874 107.452C207.17 107.244 207.414 106.92 207.606 106.48L207.846 105.94L205.29 99.964H206.31L208.35 104.944L210.414 99.964H211.386ZM36.232 115.732V119.032C36.232 119.48 36.324 119.796 36.508 119.98C36.692 120.156 36.952 120.244 37.288 120.244C37.512 120.244 37.728 120.208 37.936 120.136V120.964C37.688 121.044 37.408 121.084 37.096 121.084C36.52 121.084 36.068 120.924 35.74 120.604C35.42 120.276 35.26 119.796 35.26 119.164V115.732H34.084V114.964H35.26V113.416L36.232 113.068V114.964H37.96V115.732H36.232ZM44.5833 117.952H40.1553C40.1633 118.72 40.3393 119.3 40.6833 119.692C41.0353 120.084 41.5433 120.28 42.2073 120.28C42.9113 120.28 43.5593 120.044 44.1513 119.572L44.4753 120.28C44.2113 120.528 43.8713 120.724 43.4553 120.868C43.0473 121.012 42.6273 121.084 42.1953 121.084C41.2513 121.084 40.5113 120.808 39.9753 120.256C39.4393 119.696 39.1713 118.932 39.1713 117.964C39.1713 117.348 39.2913 116.804 39.5313 116.332C39.7713 115.852 40.1073 115.48 40.5393 115.216C40.9713 114.952 41.4633 114.82 42.0153 114.82C42.8153 114.82 43.4433 115.084 43.8993 115.612C44.3553 116.132 44.5833 116.852 44.5833 117.772V117.952ZM42.0273 115.576C41.5233 115.576 41.1113 115.728 40.7913 116.032C40.4793 116.336 40.2793 116.764 40.1913 117.316H43.7073C43.6593 116.748 43.4913 116.316 43.2033 116.02C42.9233 115.724 42.5313 115.576 42.0273 115.576ZM51.7166 121H50.5526L48.6446 118.624L46.7606 121H45.5726L48.0806 117.892L45.7166 114.964H46.8926L48.6446 117.184L50.3966 114.964H51.5846L49.2326 117.892L51.7166 121ZM54.4945 115.732V119.032C54.4945 119.48 54.5865 119.796 54.7705 119.98C54.9545 120.156 55.2145 120.244 55.5505 120.244C55.7745 120.244 55.9905 120.208 56.1985 120.136V120.964C55.9505 121.044 55.6705 121.084 55.3585 121.084C54.7825 121.084 54.3305 120.924 54.0025 120.604C53.6825 120.276 53.5225 119.796 53.5225 119.164V115.732H52.3465V114.964H53.5225V113.416L54.4945 113.068V114.964H56.2225V115.732H54.4945ZM63.8187 121.084C63.2507 121.084 62.7507 120.956 62.3187 120.7C61.8867 120.444 61.5507 120.08 61.3107 119.608C61.0787 119.136 60.9627 118.584 60.9627 117.952C60.9627 117.32 61.0787 116.768 61.3107 116.296C61.5507 115.824 61.8867 115.46 62.3187 115.204C62.7507 114.948 63.2507 114.82 63.8187 114.82C64.3867 114.82 64.8867 114.948 65.3187 115.204C65.7507 115.46 66.0827 115.824 66.3147 116.296C66.5547 116.768 66.6747 117.32 66.6747 117.952C66.6747 118.584 66.5547 119.136 66.3147 119.608C66.0827 120.08 65.7507 120.444 65.3187 120.7C64.8867 120.956 64.3867 121.084 63.8187 121.084ZM63.8187 120.28C64.4187 120.28 64.8787 120.084 65.1987 119.692C65.5187 119.292 65.6787 118.712 65.6787 117.952C65.6787 117.216 65.5147 116.648 65.1867 116.248C64.8587 115.84 64.4027 115.636 63.8187 115.636C63.2267 115.636 62.7667 115.84 62.4387 116.248C62.1107 116.648 61.9467 117.216 61.9467 117.952C61.9467 118.712 62.1067 119.292 62.4267 119.692C62.7547 120.084 63.2187 120.28 63.8187 120.28ZM70.8942 112.96C70.5742 112.96 70.3222 113.052 70.1382 113.236C69.9622 113.412 69.8742 113.72 69.8742 114.16V114.964H71.3502V115.732H69.8742V121H68.9022V115.732H67.7262V114.964H68.9022V114.04C68.9022 113.408 69.0582 112.932 69.3702 112.612C69.6902 112.284 70.1342 112.12 70.7022 112.12C70.9822 112.12 71.2542 112.156 71.5182 112.228V113.056C71.2942 112.992 71.0862 112.96 70.8942 112.96ZM77.8461 115.732V119.032C77.8461 119.48 77.9381 119.796 78.1221 119.98C78.3061 120.156 78.5661 120.244 78.9021 120.244C79.1261 120.244 79.3421 120.208 79.5501 120.136V120.964C79.3021 121.044 79.0221 121.084 78.7101 121.084C78.1341 121.084 77.6821 120.924 77.3541 120.604C77.0341 120.276 76.8741 119.796 76.8741 119.164V115.732H75.6981V114.964H76.8741V113.416L77.8461 113.068V114.964H79.5741V115.732H77.8461ZM84.1574 114.82C85.6054 114.82 86.3294 115.616 86.3294 117.208V121H85.3574V117.256C85.3574 116.696 85.2454 116.288 85.0214 116.032C84.7974 115.768 84.4454 115.636 83.9654 115.636C83.4054 115.636 82.9574 115.808 82.6214 116.152C82.2854 116.496 82.1174 116.96 82.1174 117.544V121H81.1454V112.168H82.1174V115.948C82.3094 115.58 82.5814 115.3 82.9334 115.108C83.2934 114.916 83.7014 114.82 84.1574 114.82ZM93.6169 117.952H89.1889C89.1969 118.72 89.3729 119.3 89.7169 119.692C90.0689 120.084 90.5769 120.28 91.2409 120.28C91.9449 120.28 92.5929 120.044 93.1849 119.572L93.5089 120.28C93.2449 120.528 92.9049 120.724 92.4889 120.868C92.0809 121.012 91.6609 121.084 91.2289 121.084C90.2849 121.084 89.5449 120.808 89.0089 120.256C88.4729 119.696 88.2049 118.932 88.2049 117.964C88.2049 117.348 88.3249 116.804 88.5649 116.332C88.8049 115.852 89.1409 115.48 89.5729 115.216C90.0049 114.952 90.4969 114.82 91.0489 114.82C91.8489 114.82 92.4769 115.084 92.9329 115.612C93.3889 116.132 93.6169 116.852 93.6169 117.772V117.952ZM91.0609 115.576C90.5569 115.576 90.1449 115.728 89.8249 116.032C89.5129 116.336 89.3129 116.764 89.2249 117.316H92.7409C92.6929 116.748 92.5249 116.316 92.2369 116.02C91.9569 115.724 91.5649 115.576 91.0609 115.576ZM102.033 114.82C102.561 114.82 103.029 114.952 103.437 115.216C103.845 115.48 104.161 115.852 104.385 116.332C104.609 116.804 104.721 117.352 104.721 117.976C104.721 118.6 104.609 119.148 104.385 119.62C104.161 120.084 103.845 120.444 103.437 120.7C103.037 120.956 102.569 121.084 102.033 121.084C101.561 121.084 101.149 120.98 100.797 120.772C100.445 120.564 100.177 120.268 99.9932 119.884V123.592H99.0212V116.656C99.0212 116.032 98.9892 115.468 98.9252 114.964H99.8492L99.9452 116.128C100.113 115.712 100.377 115.392 100.737 115.168C101.105 114.936 101.537 114.82 102.033 114.82ZM101.853 120.28C102.445 120.28 102.901 120.08 103.221 119.68C103.549 119.28 103.713 118.712 103.713 117.976C103.713 117.24 103.549 116.668 103.221 116.26C102.893 115.844 102.437 115.636 101.853 115.636C101.253 115.636 100.793 115.836 100.473 116.236C100.153 116.636 99.9932 117.208 99.9932 117.952C99.9932 118.696 100.153 119.272 100.473 119.68C100.793 120.08 101.253 120.28 101.853 120.28ZM109.424 114.82C109.624 114.82 109.808 114.844 109.976 114.892L109.952 115.78C109.768 115.716 109.556 115.684 109.316 115.684C108.732 115.684 108.296 115.868 108.008 116.236C107.728 116.596 107.588 117.036 107.588 117.556V121H106.616V116.656C106.616 116.032 106.584 115.468 106.52 114.964H107.444L107.54 116.08C107.692 115.672 107.936 115.36 108.272 115.144C108.608 114.928 108.992 114.82 109.424 114.82ZM111.364 114.964H112.336V121H111.364V114.964ZM112.456 112.408V113.512H111.268V112.408H112.456ZM117.636 114.82C119.084 114.82 119.808 115.616 119.808 117.208V121H118.836V117.256C118.836 116.696 118.724 116.288 118.5 116.032C118.276 115.768 117.924 115.636 117.444 115.636C116.884 115.636 116.436 115.808 116.1 116.152C115.764 116.496 115.596 116.96 115.596 117.544V121H114.624V116.656C114.624 116.032 114.592 115.468 114.528 114.964H115.451L115.548 116.044C115.732 115.652 116.008 115.352 116.376 115.144C116.744 114.928 117.164 114.82 117.636 114.82ZM123.339 115.732V119.032C123.339 119.48 123.431 119.796 123.615 119.98C123.799 120.156 124.059 120.244 124.395 120.244C124.619 120.244 124.835 120.208 125.043 120.136V120.964C124.795 121.044 124.515 121.084 124.203 121.084C123.627 121.084 123.175 120.924 122.847 120.604C122.527 120.276 122.367 119.796 122.367 119.164V115.732H121.191V114.964H122.367V113.416L123.339 113.068V114.964H125.067V115.732H123.339ZM126.638 114.964H127.61V121H126.638V114.964ZM127.73 112.408V113.512H126.542V112.408H127.73ZM132.91 114.82C134.358 114.82 135.082 115.616 135.082 117.208V121H134.11V117.256C134.11 116.696 133.998 116.288 133.774 116.032C133.55 115.768 133.198 115.636 132.718 115.636C132.158 115.636 131.71 115.808 131.374 116.152C131.038 116.496 130.87 116.96 130.87 117.544V121H129.898V116.656C129.898 116.032 129.866 115.468 129.802 114.964H130.726L130.822 116.044C131.006 115.652 131.282 115.352 131.65 115.144C132.018 114.928 132.438 114.82 132.91 114.82ZM142.693 114.964V120.952C142.693 121.848 142.461 122.524 141.997 122.98C141.541 123.444 140.865 123.676 139.969 123.676C139.049 123.676 138.257 123.468 137.593 123.052L137.761 122.26C138.145 122.476 138.505 122.632 138.841 122.728C139.185 122.824 139.561 122.872 139.969 122.872C140.553 122.872 140.993 122.716 141.289 122.404C141.585 122.1 141.733 121.644 141.733 121.036V119.608C141.549 119.992 141.277 120.292 140.917 120.508C140.565 120.716 140.145 120.82 139.657 120.82C139.129 120.82 138.657 120.696 138.241 120.448C137.833 120.2 137.517 119.848 137.293 119.392C137.069 118.936 136.957 118.412 136.957 117.82C136.957 117.228 137.069 116.704 137.293 116.248C137.517 115.792 137.833 115.44 138.241 115.192C138.657 114.944 139.129 114.82 139.657 114.82C140.137 114.82 140.553 114.924 140.905 115.132C141.265 115.34 141.537 115.632 141.721 116.008V114.964H142.693ZM139.849 120.004C140.433 120.004 140.889 119.812 141.217 119.428C141.553 119.036 141.721 118.5 141.721 117.82C141.721 117.14 141.553 116.608 141.217 116.224C140.889 115.832 140.433 115.636 139.849 115.636C139.257 115.636 138.789 115.832 138.445 116.224C138.109 116.608 137.941 117.14 137.941 117.82C137.941 118.5 138.109 119.036 138.445 119.428C138.789 119.812 139.257 120.004 139.849 120.004ZM153.804 114.964V121H152.844V119.908C152.668 120.284 152.4 120.576 152.04 120.784C151.688 120.984 151.276 121.084 150.804 121.084C150.268 121.084 149.796 120.956 149.388 120.7C148.988 120.444 148.676 120.084 148.452 119.62C148.236 119.148 148.128 118.6 148.128 117.976C148.128 117.352 148.24 116.804 148.464 116.332C148.688 115.852 149 115.48 149.4 115.216C149.808 114.952 150.276 114.82 150.804 114.82C151.276 114.82 151.688 114.924 152.04 115.132C152.392 115.34 152.66 115.632 152.844 116.008V114.964H153.804ZM150.996 120.28C151.588 120.28 152.044 120.08 152.364 119.68C152.684 119.272 152.844 118.696 152.844 117.952C152.844 117.208 152.684 116.636 152.364 116.236C152.044 115.836 151.588 115.636 150.996 115.636C150.404 115.636 149.94 115.844 149.604 116.26C149.276 116.668 149.112 117.24 149.112 117.976C149.112 118.712 149.276 119.28 149.604 119.68C149.932 120.08 150.396 120.28 150.996 120.28ZM159.096 114.82C160.544 114.82 161.268 115.616 161.268 117.208V121H160.296V117.256C160.296 116.696 160.184 116.288 159.96 116.032C159.736 115.768 159.384 115.636 158.904 115.636C158.344 115.636 157.896 115.808 157.56 116.152C157.224 116.496 157.056 116.96 157.056 117.544V121H156.084V116.656C156.084 116.032 156.052 115.468 155.988 114.964H156.912L157.008 116.044C157.192 115.652 157.468 115.352 157.836 115.144C158.204 114.928 158.624 114.82 159.096 114.82ZM168.819 112.168V121H167.859V119.908C167.683 120.284 167.415 120.576 167.055 120.784C166.703 120.984 166.291 121.084 165.819 121.084C165.291 121.084 164.823 120.952 164.415 120.688C164.015 120.424 163.703 120.056 163.479 119.584C163.255 119.104 163.143 118.552 163.143 117.928C163.143 117.304 163.251 116.76 163.467 116.296C163.691 115.824 164.007 115.46 164.415 115.204C164.823 114.948 165.291 114.82 165.819 114.82C166.291 114.82 166.703 114.924 167.055 115.132C167.407 115.332 167.671 115.616 167.847 115.984V112.168H168.819ZM166.011 120.28C166.603 120.28 167.059 120.08 167.379 119.68C167.699 119.272 167.859 118.696 167.859 117.952C167.859 117.216 167.699 116.648 167.379 116.248C167.059 115.84 166.603 115.636 166.011 115.636C165.419 115.636 164.955 115.836 164.619 116.236C164.291 116.636 164.127 117.2 164.127 117.928C164.127 118.672 164.291 119.252 164.619 119.668C164.955 120.076 165.419 120.28 166.011 120.28ZM36.232 130.732V134.032C36.232 134.48 36.324 134.796 36.508 134.98C36.692 135.156 36.952 135.244 37.288 135.244C37.512 135.244 37.728 135.208 37.936 135.136V135.964C37.688 136.044 37.408 136.084 37.096 136.084C36.52 136.084 36.068 135.924 35.74 135.604C35.42 135.276 35.26 134.796 35.26 134.164V130.732H34.084V129.964H35.26V128.416L36.232 128.068V129.964H37.96V130.732H36.232ZM44.9056 129.964L42.0856 136.552C41.7896 137.24 41.4176 137.744 40.9696 138.064C40.5216 138.384 39.9696 138.604 39.3136 138.724L39.1096 137.968C39.6776 137.84 40.1056 137.668 40.3936 137.452C40.6896 137.244 40.9336 136.92 41.1256 136.48L41.3656 135.94L38.8096 129.964H39.8296L41.8696 134.944L43.9336 129.964H44.9056ZM49.3886 129.82C49.9166 129.82 50.3846 129.952 50.7926 130.216C51.2006 130.48 51.5166 130.852 51.7406 131.332C51.9646 131.804 52.0766 132.352 52.0766 132.976C52.0766 133.6 51.9646 134.148 51.7406 134.62C51.5166 135.084 51.2006 135.444 50.7926 135.7C50.3926 135.956 49.9246 136.084 49.3886 136.084C48.9166 136.084 48.5046 135.98 48.1526 135.772C47.8006 135.564 47.5326 135.268 47.3486 134.884V138.592H46.3766V131.656C46.3766 131.032 46.3446 130.468 46.2806 129.964H47.2046L47.3006 131.128C47.4686 130.712 47.7326 130.392 48.0926 130.168C48.4606 129.936 48.8926 129.82 49.3886 129.82ZM49.2086 135.28C49.8006 135.28 50.2566 135.08 50.5766 134.68C50.9046 134.28 51.0686 133.712 51.0686 132.976C51.0686 132.24 50.9046 131.668 50.5766 131.26C50.2486 130.844 49.7926 130.636 49.2086 130.636C48.6086 130.636 48.1486 130.836 47.8286 131.236C47.5086 131.636 47.3486 132.208 47.3486 132.952C47.3486 133.696 47.5086 134.272 47.8286 134.68C48.1486 135.08 48.6086 135.28 49.2086 135.28ZM59.0239 132.952H54.5959C54.6039 133.72 54.7799 134.3 55.1239 134.692C55.4759 135.084 55.9839 135.28 56.6479 135.28C57.3519 135.28 57.9999 135.044 58.5919 134.572L58.9159 135.28C58.6519 135.528 58.3119 135.724 57.8959 135.868C57.4879 136.012 57.0679 136.084 56.6359 136.084C55.6919 136.084 54.9519 135.808 54.4159 135.256C53.8799 134.696 53.6119 133.932 53.6119 132.964C53.6119 132.348 53.7319 131.804 53.9719 131.332C54.2119 130.852 54.5479 130.48 54.9799 130.216C55.4119 129.952 55.9039 129.82 56.4559 129.82C57.2559 129.82 57.8839 130.084 58.3399 130.612C58.7959 131.132 59.0239 131.852 59.0239 132.772V132.952ZM56.4679 130.576C55.9639 130.576 55.5519 130.728 55.2319 131.032C54.9199 131.336 54.7199 131.764 54.6319 132.316H58.1479C58.0999 131.748 57.9319 131.316 57.6439 131.02C57.3639 130.724 56.9719 130.576 56.4679 130.576ZM62.9393 136.084C61.9233 136.084 61.1193 135.824 60.5273 135.304L60.8513 134.584C61.1793 134.84 61.5113 135.024 61.8473 135.136C62.1833 135.248 62.5593 135.304 62.9753 135.304C63.4313 135.304 63.7753 135.228 64.0073 135.076C64.2473 134.916 64.3673 134.688 64.3673 134.392C64.3673 134.152 64.2873 133.96 64.1273 133.816C63.9673 133.672 63.7033 133.56 63.3353 133.48L62.3153 133.24C61.8113 133.128 61.4193 132.928 61.1393 132.64C60.8673 132.352 60.7313 132.008 60.7313 131.608C60.7313 131.08 60.9433 130.652 61.3673 130.324C61.7913 129.988 62.3513 129.82 63.0473 129.82C63.4713 129.82 63.8713 129.888 64.2473 130.024C64.6233 130.16 64.9393 130.356 65.1953 130.612L64.8713 131.32C64.3033 130.848 63.6953 130.612 63.0473 130.612C62.6153 130.612 62.2793 130.696 62.0393 130.864C61.8073 131.024 61.6913 131.252 61.6913 131.548C61.6913 131.796 61.7633 131.992 61.9073 132.136C62.0593 132.28 62.2993 132.392 62.6273 132.472L63.6473 132.724C64.2073 132.852 64.6233 133.052 64.8953 133.324C65.1673 133.588 65.3033 133.936 65.3033 134.368C65.3033 134.888 65.0913 135.304 64.6673 135.616C64.2433 135.928 63.6673 136.084 62.9393 136.084ZM72.3044 132.952H67.8764C67.8844 133.72 68.0604 134.3 68.4044 134.692C68.7564 135.084 69.2644 135.28 69.9284 135.28C70.6324 135.28 71.2804 135.044 71.8724 134.572L72.1964 135.28C71.9324 135.528 71.5924 135.724 71.1764 135.868C70.7684 136.012 70.3484 136.084 69.9164 136.084C68.9724 136.084 68.2324 135.808 67.6964 135.256C67.1604 134.696 66.8924 133.932 66.8924 132.964C66.8924 132.348 67.0124 131.804 67.2524 131.332C67.4924 130.852 67.8284 130.48 68.2604 130.216C68.6924 129.952 69.1844 129.82 69.7364 129.82C70.5364 129.82 71.1644 130.084 71.6204 130.612C72.0764 131.132 72.3044 131.852 72.3044 132.772V132.952ZM69.7484 130.576C69.2444 130.576 68.8324 130.728 68.5124 131.032C68.2004 131.336 68.0004 131.764 67.9124 132.316H71.4284C71.3804 131.748 71.2124 131.316 70.9244 131.02C70.6444 130.724 70.2524 130.576 69.7484 130.576ZM75.4406 130.732V134.032C75.4406 134.48 75.5326 134.796 75.7166 134.98C75.9006 135.156 76.1606 135.244 76.4966 135.244C76.7206 135.244 76.9366 135.208 77.1446 135.136V135.964C76.8966 136.044 76.6166 136.084 76.3046 136.084C75.7286 136.084 75.2766 135.924 74.9486 135.604C74.6286 135.276 74.4686 134.796 74.4686 134.164V130.732H73.2926V129.964H74.4686V128.416L75.4406 128.068V129.964H77.1686V130.732H75.4406ZM80.0711 130.732V134.032C80.0711 134.48 80.1631 134.796 80.3471 134.98C80.5311 135.156 80.7911 135.244 81.1271 135.244C81.3511 135.244 81.5671 135.208 81.7751 135.136V135.964C81.5271 136.044 81.2471 136.084 80.9351 136.084C80.3591 136.084 79.9071 135.924 79.5791 135.604C79.2591 135.276 79.0991 134.796 79.0991 134.164V130.732H77.9231V129.964H79.0991V128.416L80.0711 128.068V129.964H81.7991V130.732H80.0711ZM83.3704 129.964H84.3424V136H83.3704V129.964ZM84.4624 127.408V128.512H83.2744V127.408H84.4624ZM89.6417 129.82C91.0897 129.82 91.8137 130.616 91.8137 132.208V136H90.8417V132.256C90.8417 131.696 90.7297 131.288 90.5057 131.032C90.2817 130.768 89.9297 130.636 89.4497 130.636C88.8897 130.636 88.4417 130.808 88.1057 131.152C87.7697 131.496 87.6017 131.96 87.6017 132.544V136H86.6297V131.656C86.6297 131.032 86.5977 130.468 86.5337 129.964H87.4577L87.5537 131.044C87.7377 130.652 88.0137 130.352 88.3817 130.144C88.7497 129.928 89.1697 129.82 89.6417 129.82ZM99.4253 129.964V135.952C99.4253 136.848 99.1933 137.524 98.7293 137.98C98.2733 138.444 97.5973 138.676 96.7013 138.676C95.7813 138.676 94.9893 138.468 94.3253 138.052L94.4933 137.26C94.8773 137.476 95.2373 137.632 95.5733 137.728C95.9173 137.824 96.2933 137.872 96.7013 137.872C97.2853 137.872 97.7253 137.716 98.0213 137.404C98.3173 137.1 98.4653 136.644 98.4653 136.036V134.608C98.2813 134.992 98.0093 135.292 97.6493 135.508C97.2973 135.716 96.8773 135.82 96.3893 135.82C95.8613 135.82 95.3893 135.696 94.9733 135.448C94.5653 135.2 94.2493 134.848 94.0253 134.392C93.8013 133.936 93.6893 133.412 93.6893 132.82C93.6893 132.228 93.8013 131.704 94.0253 131.248C94.2493 130.792 94.5653 130.44 94.9733 130.192C95.3893 129.944 95.8613 129.82 96.3893 129.82C96.8693 129.82 97.2853 129.924 97.6373 130.132C97.9973 130.34 98.2693 130.632 98.4533 131.008V129.964H99.4253ZM96.5813 135.004C97.1653 135.004 97.6213 134.812 97.9493 134.428C98.2853 134.036 98.4533 133.5 98.4533 132.82C98.4533 132.14 98.2853 131.608 97.9493 131.224C97.6213 130.832 97.1653 130.636 96.5813 130.636C95.9893 130.636 95.5213 130.832 95.1773 131.224C94.8413 131.608 94.6733 132.14 94.6733 132.82C94.6733 133.5 94.8413 134.036 95.1773 134.428C95.5213 134.812 95.9893 135.004 96.5813 135.004ZM105.22 129.964H106.192V136H105.22V129.964ZM106.312 127.408V128.512H105.124V127.408H106.312ZM111.492 129.82C112.94 129.82 113.664 130.616 113.664 132.208V136H112.692V132.256C112.692 131.696 112.58 131.288 112.356 131.032C112.132 130.768 111.78 130.636 111.3 130.636C110.74 130.636 110.292 130.808 109.956 131.152C109.62 131.496 109.452 131.96 109.452 132.544V136H108.48V131.656C108.48 131.032 108.448 130.468 108.384 129.964H109.308L109.404 131.044C109.588 130.652 109.864 130.352 110.232 130.144C110.6 129.928 111.02 129.82 111.492 129.82ZM121.215 127.168V136H120.255V134.908C120.079 135.284 119.811 135.576 119.451 135.784C119.099 135.984 118.687 136.084 118.215 136.084C117.687 136.084 117.219 135.952 116.811 135.688C116.411 135.424 116.099 135.056 115.875 134.584C115.651 134.104 115.539 133.552 115.539 132.928C115.539 132.304 115.647 131.76 115.863 131.296C116.087 130.824 116.403 130.46 116.811 130.204C117.219 129.948 117.687 129.82 118.215 129.82C118.687 129.82 119.099 129.924 119.451 130.132C119.803 130.332 120.067 130.616 120.243 130.984V127.168H121.215ZM118.407 135.28C118.999 135.28 119.455 135.08 119.775 134.68C120.095 134.272 120.255 133.696 120.255 132.952C120.255 132.216 120.095 131.648 119.775 131.248C119.455 130.84 118.999 130.636 118.407 130.636C117.815 130.636 117.351 130.836 117.015 131.236C116.687 131.636 116.523 132.2 116.523 132.928C116.523 133.672 116.687 134.252 117.015 134.668C117.351 135.076 117.815 135.28 118.407 135.28ZM128.547 129.964V136H127.599V134.956C127.407 135.324 127.139 135.604 126.795 135.796C126.451 135.988 126.063 136.084 125.631 136.084C124.919 136.084 124.379 135.884 124.011 135.484C123.643 135.084 123.459 134.492 123.459 133.708V129.964H124.431V133.684C124.431 134.228 124.543 134.628 124.767 134.884C124.991 135.14 125.331 135.268 125.787 135.268C126.323 135.268 126.755 135.096 127.083 134.752C127.411 134.4 127.575 133.94 127.575 133.372V129.964H128.547ZM132.86 136.084C131.844 136.084 131.04 135.824 130.448 135.304L130.772 134.584C131.1 134.84 131.432 135.024 131.768 135.136C132.104 135.248 132.48 135.304 132.896 135.304C133.352 135.304 133.696 135.228 133.928 135.076C134.168 134.916 134.288 134.688 134.288 134.392C134.288 134.152 134.208 133.96 134.048 133.816C133.888 133.672 133.624 133.56 133.256 133.48L132.236 133.24C131.732 133.128 131.34 132.928 131.06 132.64C130.788 132.352 130.652 132.008 130.652 131.608C130.652 131.08 130.864 130.652 131.288 130.324C131.712 129.988 132.272 129.82 132.968 129.82C133.392 129.82 133.792 129.888 134.168 130.024C134.544 130.16 134.86 130.356 135.116 130.612L134.792 131.32C134.224 130.848 133.616 130.612 132.968 130.612C132.536 130.612 132.2 130.696 131.96 130.864C131.728 131.024 131.612 131.252 131.612 131.548C131.612 131.796 131.684 131.992 131.828 132.136C131.98 132.28 132.22 132.392 132.548 132.472L133.568 132.724C134.128 132.852 134.544 133.052 134.816 133.324C135.088 133.588 135.224 133.936 135.224 134.368C135.224 134.888 135.012 135.304 134.588 135.616C134.164 135.928 133.588 136.084 132.86 136.084ZM138.411 130.732V134.032C138.411 134.48 138.503 134.796 138.687 134.98C138.871 135.156 139.131 135.244 139.467 135.244C139.691 135.244 139.907 135.208 140.115 135.136V135.964C139.867 136.044 139.587 136.084 139.275 136.084C138.699 136.084 138.247 135.924 137.919 135.604C137.599 135.276 137.439 134.796 137.439 134.164V130.732H136.263V129.964H137.439V128.416L138.411 128.068V129.964H140.139V130.732H138.411ZM144.518 129.82C144.718 129.82 144.902 129.844 145.07 129.892L145.046 130.78C144.862 130.716 144.65 130.684 144.41 130.684C143.826 130.684 143.39 130.868 143.102 131.236C142.822 131.596 142.682 132.036 142.682 132.556V136H141.71V131.656C141.71 131.032 141.678 130.468 141.614 129.964H142.538L142.634 131.08C142.786 130.672 143.03 130.36 143.366 130.144C143.702 129.928 144.086 129.82 144.518 129.82ZM152.125 129.964L149.305 136.552C149.009 137.24 148.637 137.744 148.189 138.064C147.741 138.384 147.189 138.604 146.533 138.724L146.329 137.968C146.897 137.84 147.325 137.668 147.613 137.452C147.909 137.244 148.153 136.92 148.345 136.48L148.585 135.94L146.029 129.964H147.049L149.089 134.944L151.153 129.964H152.125ZM154.219 134.764V136H152.983V134.764H154.219ZM159.977 127.456H160.961V135.16H165.245V136H159.977V127.456ZM169.28 136.084C168.712 136.084 168.212 135.956 167.78 135.7C167.348 135.444 167.012 135.08 166.772 134.608C166.54 134.136 166.424 133.584 166.424 132.952C166.424 132.32 166.54 131.768 166.772 131.296C167.012 130.824 167.348 130.46 167.78 130.204C168.212 129.948 168.712 129.82 169.28 129.82C169.848 129.82 170.348 129.948 170.78 130.204C171.212 130.46 171.544 130.824 171.776 131.296C172.016 131.768 172.136 132.32 172.136 132.952C172.136 133.584 172.016 134.136 171.776 134.608C171.544 135.08 171.212 135.444 170.78 135.7C170.348 135.956 169.848 136.084 169.28 136.084ZM169.28 135.28C169.88 135.28 170.34 135.084 170.66 134.692C170.98 134.292 171.14 133.712 171.14 132.952C171.14 132.216 170.976 131.648 170.648 131.248C170.32 130.84 169.864 130.636 169.28 130.636C168.688 130.636 168.228 130.84 167.9 131.248C167.572 131.648 167.408 132.216 167.408 132.952C167.408 133.712 167.568 134.292 167.888 134.692C168.216 135.084 168.68 135.28 169.28 135.28ZM176.86 129.82C177.06 129.82 177.244 129.844 177.412 129.892L177.388 130.78C177.204 130.716 176.992 130.684 176.752 130.684C176.168 130.684 175.732 130.868 175.444 131.236C175.164 131.596 175.024 132.036 175.024 132.556V136H174.052V131.656C174.052 131.032 174.02 130.468 173.956 129.964H174.88L174.976 131.08C175.128 130.672 175.372 130.36 175.708 130.144C176.044 129.928 176.428 129.82 176.86 129.82ZM183.734 132.952H179.306C179.314 133.72 179.49 134.3 179.834 134.692C180.186 135.084 180.694 135.28 181.358 135.28C182.062 135.28 182.71 135.044 183.302 134.572L183.626 135.28C183.362 135.528 183.022 135.724 182.606 135.868C182.198 136.012 181.778 136.084 181.346 136.084C180.402 136.084 179.662 135.808 179.126 135.256C178.59 134.696 178.322 133.932 178.322 132.964C178.322 132.348 178.442 131.804 178.682 131.332C178.922 130.852 179.258 130.48 179.69 130.216C180.122 129.952 180.614 129.82 181.166 129.82C181.966 129.82 182.594 130.084 183.05 130.612C183.506 131.132 183.734 131.852 183.734 132.772V132.952ZM181.178 130.576C180.674 130.576 180.262 130.728 179.942 131.032C179.63 131.336 179.43 131.764 179.342 132.316H182.858C182.81 131.748 182.642 131.316 182.354 131.02C182.074 130.724 181.682 130.576 181.178 130.576ZM192.305 129.82C193.641 129.82 194.309 130.616 194.309 132.208V136H193.337V132.256C193.337 131.688 193.237 131.276 193.037 131.02C192.845 130.764 192.529 130.636 192.089 130.636C191.577 130.636 191.177 130.808 190.889 131.152C190.601 131.496 190.457 131.964 190.457 132.556V136H189.485V132.256C189.485 131.696 189.385 131.288 189.185 131.032C188.985 130.768 188.665 130.636 188.225 130.636C187.713 130.636 187.309 130.808 187.013 131.152C186.725 131.496 186.581 131.964 186.581 132.556V136H185.609V131.656C185.609 131.032 185.577 130.468 185.513 129.964H186.437L186.533 131.02C186.701 130.636 186.949 130.34 187.277 130.132C187.613 129.924 188.001 129.82 188.441 129.82C188.921 129.82 189.313 129.916 189.617 130.108C189.921 130.3 190.145 130.596 190.289 130.996C190.473 130.636 190.741 130.352 191.093 130.144C191.453 129.928 191.857 129.82 192.305 129.82ZM35.056 142.456H36.04V151H35.056V142.456ZM41.4418 144.82C41.9698 144.82 42.4378 144.952 42.8458 145.216C43.2538 145.48 43.5698 145.852 43.7938 146.332C44.0178 146.804 44.1298 147.352 44.1298 147.976C44.1298 148.6 44.0178 149.148 43.7938 149.62C43.5698 150.084 43.2538 150.444 42.8458 150.7C42.4458 150.956 41.9778 151.084 41.4418 151.084C40.9698 151.084 40.5578 150.98 40.2058 150.772C39.8538 150.564 39.5858 150.268 39.4018 149.884V153.592H38.4298V146.656C38.4298 146.032 38.3978 145.468 38.3338 144.964H39.2578L39.3538 146.128C39.5218 145.712 39.7858 145.392 40.1458 145.168C40.5138 144.936 40.9458 144.82 41.4418 144.82ZM41.2618 150.28C41.8538 150.28 42.3098 150.08 42.6298 149.68C42.9578 149.28 43.1218 148.712 43.1218 147.976C43.1218 147.24 42.9578 146.668 42.6298 146.26C42.3018 145.844 41.8458 145.636 41.2618 145.636C40.6618 145.636 40.2018 145.836 39.8818 146.236C39.5618 146.636 39.4018 147.208 39.4018 147.952C39.4018 148.696 39.5618 149.272 39.8818 149.68C40.2018 150.08 40.6618 150.28 41.2618 150.28ZM48.0651 151.084C47.0491 151.084 46.2451 150.824 45.6531 150.304L45.9771 149.584C46.3051 149.84 46.6371 150.024 46.9731 150.136C47.3091 150.248 47.6851 150.304 48.1011 150.304C48.5571 150.304 48.9011 150.228 49.1331 150.076C49.3731 149.916 49.4931 149.688 49.4931 149.392C49.4931 149.152 49.4131 148.96 49.2531 148.816C49.0931 148.672 48.8291 148.56 48.4611 148.48L47.4411 148.24C46.9371 148.128 46.5451 147.928 46.2651 147.64C45.9931 147.352 45.8571 147.008 45.8571 146.608C45.8571 146.08 46.0691 145.652 46.4931 145.324C46.9171 144.988 47.4771 144.82 48.1731 144.82C48.5971 144.82 48.9971 144.888 49.3731 145.024C49.7491 145.16 50.0651 145.356 50.3211 145.612L49.9971 146.32C49.4291 145.848 48.8211 145.612 48.1731 145.612C47.7411 145.612 47.4051 145.696 47.1651 145.864C46.9331 146.024 46.8171 146.252 46.8171 146.548C46.8171 146.796 46.8891 146.992 47.0331 147.136C47.1851 147.28 47.4251 147.392 47.7531 147.472L48.7731 147.724C49.3331 147.852 49.7491 148.052 50.0211 148.324C50.2931 148.588 50.4291 148.936 50.4291 149.368C50.4291 149.888 50.2171 150.304 49.7931 150.616C49.3691 150.928 48.7931 151.084 48.0651 151.084ZM57.4302 144.964V151H56.4822V149.956C56.2902 150.324 56.0222 150.604 55.6782 150.796C55.3342 150.988 54.9462 151.084 54.5142 151.084C53.8022 151.084 53.2622 150.884 52.8942 150.484C52.5262 150.084 52.3422 149.492 52.3422 148.708V144.964H53.3142V148.684C53.3142 149.228 53.4262 149.628 53.6502 149.884C53.8742 150.14 54.2142 150.268 54.6702 150.268C55.2062 150.268 55.6382 150.096 55.9662 149.752C56.2942 149.4 56.4582 148.94 56.4582 148.372V144.964H57.4302ZM66.4 144.82C67.736 144.82 68.404 145.616 68.404 147.208V151H67.432V147.256C67.432 146.688 67.332 146.276 67.132 146.02C66.94 145.764 66.624 145.636 66.184 145.636C65.672 145.636 65.272 145.808 64.984 146.152C64.696 146.496 64.552 146.964 64.552 147.556V151H63.58V147.256C63.58 146.696 63.48 146.288 63.28 146.032C63.08 145.768 62.76 145.636 62.32 145.636C61.808 145.636 61.404 145.808 61.108 146.152C60.82 146.496 60.676 146.964 60.676 147.556V151H59.704V146.656C59.704 146.032 59.672 145.468 59.608 144.964H60.532L60.628 146.02C60.796 145.636 61.044 145.34 61.372 145.132C61.708 144.924 62.096 144.82 62.536 144.82C63.016 144.82 63.408 144.916 63.712 145.108C64.016 145.3 64.24 145.596 64.384 145.996C64.568 145.636 64.836 145.352 65.188 145.144C65.548 144.928 65.952 144.82 66.4 144.82ZM77.1918 144.82C78.6398 144.82 79.3638 145.616 79.3638 147.208V151H78.3918V147.256C78.3918 146.696 78.2798 146.288 78.0558 146.032C77.8318 145.768 77.4798 145.636 76.9998 145.636C76.4398 145.636 75.9918 145.808 75.6558 146.152C75.3198 146.496 75.1518 146.96 75.1518 147.544V151H74.1798V142.168H75.1518V145.948C75.3438 145.58 75.6158 145.3 75.9678 145.108C76.3278 144.916 76.7358 144.82 77.1918 144.82ZM86.9153 144.964V151H85.9553V149.908C85.7793 150.284 85.5113 150.576 85.1513 150.784C84.7993 150.984 84.3873 151.084 83.9153 151.084C83.3793 151.084 82.9073 150.956 82.4993 150.7C82.0993 150.444 81.7873 150.084 81.5633 149.62C81.3473 149.148 81.2393 148.6 81.2393 147.976C81.2393 147.352 81.3513 146.804 81.5753 146.332C81.7993 145.852 82.1113 145.48 82.5113 145.216C82.9193 144.952 83.3873 144.82 83.9153 144.82C84.3873 144.82 84.7993 144.924 85.1513 145.132C85.5033 145.34 85.7713 145.632 85.9553 146.008V144.964H86.9153ZM84.1073 150.28C84.6993 150.28 85.1553 150.08 85.4753 149.68C85.7953 149.272 85.9553 148.696 85.9553 147.952C85.9553 147.208 85.7953 146.636 85.4753 146.236C85.1553 145.836 84.6993 145.636 84.1073 145.636C83.5153 145.636 83.0513 145.844 82.7153 146.26C82.3873 146.668 82.2233 147.24 82.2233 147.976C82.2233 148.712 82.3873 149.28 82.7153 149.68C83.0433 150.08 83.5073 150.28 84.1073 150.28ZM91.2346 151.084C90.2186 151.084 89.4146 150.824 88.8226 150.304L89.1466 149.584C89.4746 149.84 89.8066 150.024 90.1426 150.136C90.4786 150.248 90.8546 150.304 91.2706 150.304C91.7266 150.304 92.0706 150.228 92.3026 150.076C92.5426 149.916 92.6626 149.688 92.6626 149.392C92.6626 149.152 92.5826 148.96 92.4226 148.816C92.2626 148.672 91.9986 148.56 91.6306 148.48L90.6106 148.24C90.1066 148.128 89.7146 147.928 89.4346 147.64C89.1626 147.352 89.0266 147.008 89.0266 146.608C89.0266 146.08 89.2386 145.652 89.6626 145.324C90.0866 144.988 90.6466 144.82 91.3426 144.82C91.7666 144.82 92.1666 144.888 92.5426 145.024C92.9186 145.16 93.2346 145.356 93.4906 145.612L93.1666 146.32C92.5986 145.848 91.9906 145.612 91.3426 145.612C90.9106 145.612 90.5746 145.696 90.3346 145.864C90.1026 146.024 89.9866 146.252 89.9866 146.548C89.9866 146.796 90.0586 146.992 90.2026 147.136C90.3546 147.28 90.5946 147.392 90.9226 147.472L91.9426 147.724C92.5026 147.852 92.9186 148.052 93.1906 148.324C93.4626 148.588 93.5986 148.936 93.5986 149.368C93.5986 149.888 93.3866 150.304 92.9626 150.616C92.5386 150.928 91.9626 151.084 91.2346 151.084Z" fill="black"/>
<path d="M232 4C241.401 4 249 11.6177 249 21C249 30.3857 241.401 38 232 38C222.616 38 215 30.3857 215 21C215 11.6177 222.616 4 232 4ZM232 25.9827C231.184 25.9827 230.521 26.6457 230.521 27.4617C230.521 28.2777 231.184 28.9577 232.017 28.9577C232.833 28.9577 233.496 28.2777 233.496 27.4617C233.496 26.6457 232.833 25.9827 232 25.9827ZM232 13.061C231.184 13.061 230.504 13.7427 230.504 14.557V22.071C230.504 22.8887 231.184 23.55 232 23.55C232.816 23.55 233.479 22.8887 233.479 22.071V14.557C233.479 13.7427 232.816 13.061 232 13.061Z" fill="#13CE74"/>
</svg>
